HIERARCHY
ROOT hip
{
	OFFSET 0.000000 0.000000 0.000000 
	CHANNELS 6 Xposition Yposition Zposition Xrotation Zrotation Yrotation
	JOINT abdomen
	{
		OFFSET 0.000000 3.402643 0.000000 
		CHANNELS 3 Xrotation Zrotation Yrotation
		JOINT chest
		{
			OFFSET 0.000000 8.438565 -0.680529 
			CHANNELS 3 Xrotation Zrotation Yrotation
			JOINT neck
			{
				OFFSET 0.000000 10.207942 -0.272212 
				CHANNELS 3 Xrotation Zrotation Yrotation
				JOINT head
				{
					OFFSET 0.000000 3.130431 0.000000 
					CHANNELS 3 Xrotation Zrotation Yrotation
					End Site
					{
						OFFSET 0.000000 3.130435 0.000000 
					}
				}
			}
			JOINT lCollar
			{
				OFFSET 3.470700 6.669187 -0.816635 
				CHANNELS 3 Yrotation Zrotation Xrotation
				JOINT lShldr
				{
					OFFSET 3.198488 0.000000 0.000000 
					CHANNELS 3 Zrotation Yrotation Xrotation
					JOINT lForeArm
					{
						OFFSET 10.139888 0.000000 0.000000 
						CHANNELS 3 Yrotation Zrotation Xrotation
						JOINT lHand
						{
							OFFSET 8.370511 0.000000 0.000000 
							CHANNELS 3 Zrotation Yrotation Xrotation
							End Site
							{
								OFFSET 4.083176 0.000000 0.000000 
							}
						}
					}
				}
			}
			JOINT rCollar
			{
				OFFSET -3.470700 6.669187 -0.816635 
				CHANNELS 3 Yrotation Zrotation Xrotation
				JOINT rShldr
				{
					OFFSET -3.198488 0.000000 0.000000 
					CHANNELS 3 Zrotation Yrotation Xrotation
					JOINT rForeArm
					{
						OFFSET -10.139888 0.000000 0.000000 
						CHANNELS 3 Yrotation Zrotation Xrotation
						JOINT rHand
						{
							OFFSET -8.370511 0.000000 0.000000 
							CHANNELS 3 Zrotation Yrotation Xrotation
							End Site
							{
								OFFSET -4.083176 0.000000 0.000000 
							}
						}
					}
				}
			}
		}
	}
	JOINT lThigh
	{
		OFFSET 5.308129 -1.633274 1.361059 
		CHANNELS 3 Xrotation Zrotation Yrotation
		JOINT lShin
		{
			OFFSET -2.041588 -20.007561 0.000000 
			CHANNELS 3 Xrotation Zrotation Yrotation
			JOINT lFoot
			{
				OFFSET 0.000000 -19.190928 -1.224953 
				CHANNELS 3 Xrotation Yrotation Zrotation
				End Site
				{
					OFFSET 0.000000 -2.449906 4.627600 
				}
			}
		}
	}
	JOINT rThigh
	{
		OFFSET -5.308129 -1.633274 1.361059 
		CHANNELS 3 Xrotation Zrotation Yrotation
		JOINT rShin
		{
			OFFSET 2.041588 -20.007561 0.000000 
			CHANNELS 3 Xrotation Zrotation Yrotation
			JOINT rFoot
			{
				OFFSET 0.000000 -19.190928 -1.224953 
				CHANNELS 3 Xrotation Yrotation Zrotation
				End Site
				{
					OFFSET 0.000000 -2.449906 4.627600 
				}
			}
		}
	}
}
MOTION
Frames: 10
Frame Time: 0.016667
-2.215569 45.706413 2.260637 5.762850 -3.517330 16.841999 -17.710899 1.554250 2.145530 15.669800 -2.315780 1.320830 7.020450 -1.496820 -3.435280 7.545080 3.745300 -1.496450 2.000000 -2.000000 0.000000 -57.127602 24.628500 120.675003 146.796997 -0.092278 0.090008 0.049850 -0.040575 -151.570007 -2.000000 2.000000 0.000000 -98.806999 -170.059998 -4.703030 -56.602100 0.290105 0.114145 -0.055515 -0.009141 -130.154007 -17.573956 -3.647528 2.510273 38.966507 2.111798 2.952037 -0.590656 -22.796816 -1.951768 -26.744997 5.865660 -3.941740 38.814751 -1.789726 -3.120163 -6.606253 5.021060 0.621250 
-2.510086 45.132603 2.707878 6.733480 -3.782400 18.498800 -18.326099 1.297580 2.099200 15.355100 -2.791210 1.308380 7.297080 -0.991086 -3.747330 7.781540 3.987450 -1.650720 2.000000 -2.000000 0.000000 -54.838501 24.128599 119.064003 145.029999 -0.094810 0.093751 0.051098 -0.045081 -153.240005 -2.000000 2.000000 0.000000 -97.693703 -169.593994 -5.671000 -52.832500 0.297446 0.108950 -0.054831 -0.002010 -132.712997 -22.008648 -2.759992 2.895673 47.819809 1.652674 3.475152 -1.544901 -20.489805 -2.124020 -25.883804 6.667930 -3.338646 36.372478 -1.826590 -2.989429 -11.214189 0.848595 0.019434 
-2.737918 44.630539 3.074045 6.556810 -3.715840 20.432199 -18.844999 1.604310 2.082830 14.583200 -2.700120 1.346560 7.760050 -1.096260 -4.117090 7.978410 4.142010 -1.870530 2.000000 -2.000000 0.000000 -52.542400 23.219999 118.762001 143.242004 -0.097487 0.097454 0.052077 -0.048299 -154.440994 -2.000000 2.000000 0.000000 -98.035004 -168.675003 -5.468230 -49.160599 0.304254 0.103436 -0.054398 -0.000027 -136.912003 -25.661301 -2.714049 0.645525 60.387657 0.912753 4.037644 -10.789776 -15.611523 -4.321147 -24.811039 7.022390 -2.355055 35.653511 -1.876553 -2.934701 -14.709128 -1.223318 -0.609972 
-2.920445 44.221844 3.174969 4.038400 -4.929200 20.823900 -18.696199 2.739990 2.638490 13.514400 -3.188700 1.790120 8.075890 -1.748290 -4.524070 8.085130 4.004870 -2.087270 2.000000 -2.000000 0.000000 -51.769199 21.696100 118.392998 141.914001 -0.099551 0.100151 0.063289 -0.052660 -156.082001 -2.000000 2.000000 0.000000 -98.962700 -169.005005 -4.705680 -44.141102 0.312961 0.095217 -0.054456 0.004293 -138.455002 -28.357721 -0.793167 -2.469276 74.596497 -0.075715 4.483870 -14.511883 -12.174901 -4.175811 -22.385214 9.605935 -2.793014 34.476795 -1.879375 -2.866916 -14.642243 -2.800014 -1.044569 
-2.941307 44.189308 3.204345 0.856541 -7.294120 20.584200 -18.205999 4.093620 2.999320 12.861000 -4.103460 2.155540 8.131740 -2.726380 -4.536490 8.053510 3.673870 -2.083330 2.000000 -2.000000 0.000000 -52.870499 21.040899 117.528000 141.298996 -0.100528 0.101384 0.064068 -0.054850 -156.912003 -2.000000 2.000000 0.000000 -99.998703 -170.753998 -4.984480 -37.724998 0.322986 0.083656 -0.054703 -0.000127 -133.386993 -30.499207 1.949788 -5.947799 87.134407 -1.074538 4.634533 -13.938335 -10.914339 -3.422227 -19.186850 13.122604 -3.879326 32.318127 -1.906598 -2.750839 -14.001183 -2.112519 -0.728960 
-2.984186 44.632462 3.351171 0.490897 -5.917750 21.198700 -17.911200 3.815820 2.898870 12.689000 -3.656750 2.047520 8.265880 -2.609320 -4.643000 7.955470 3.645280 -2.140420 2.000000 -2.000000 0.000000 -54.395401 20.729200 118.227997 141.455002 -0.100278 0.101072 0.062986 -0.061546 -155.750000 -2.000000 2.000000 0.000000 80.585701 -8.075090 171.319000 -32.920300 0.329612 0.074304 -0.057675 -0.022500 -125.320000 -32.943398 -1.323650 -8.500398 94.689545 -1.860083 4.723571 -12.536487 -10.342345 -3.023573 -17.083216 11.864402 -4.163023 30.092045 -2.010410 -2.566221 -12.897441 -1.581163 -0.605864 
-3.013294 45.230583 3.549550 0.921812 -5.233700 21.975901 -17.744600 3.180810 2.566860 13.109500 -3.689410 1.819430 9.094290 -1.719860 -4.706420 8.299240 3.828040 -2.163480 2.000000 -2.000000 0.000000 -55.726299 21.306601 119.360001 141.729004 -0.099844 0.100524 0.052003 -0.048064 -154.352997 -2.000000 2.000000 0.000000 81.893204 -7.922410 168.682007 -31.064800 0.331958 0.070550 -0.057780 -0.023009 -125.135002 -36.050423 -4.847830 -11.257720 98.102707 -2.289716 4.755949 -13.373253 -12.093071 -3.779142 -15.462251 11.155519 -3.618176 26.781586 -2.042264 -2.364033 -10.992009 -1.940286 -0.740697 
-3.020291 45.868191 3.659889 1.626260 -4.568480 21.647400 -17.469900 2.446870 2.777910 13.574800 -4.216660 1.882420 8.779590 -0.984852 -4.903680 8.183100 4.013920 -2.255530 2.000000 -2.000000 0.000000 -56.724998 22.128099 120.325996 141.679993 -0.099921 0.100622 0.051433 -0.046209 -153.660004 -2.000000 2.000000 0.000000 83.338501 -8.819480 168.093994 -31.904600 0.330911 0.072259 -0.055348 -0.007674 -130.682007 -38.835701 -7.716499 -11.934255 95.500069 -2.156981 4.812979 -13.134873 -12.555741 -4.122696 -14.329170 10.344638 -2.856610 23.835096 -2.041042 -2.193431 -8.736834 -1.750240 -0.692173 
-3.011665 46.287685 3.635365 2.024640 -3.201130 20.228300 -16.819901 1.636920 3.313050 13.872900 -4.801290 2.085060 7.180100 -0.702131 -4.936710 7.635590 4.124860 -2.267540 2.000000 -2.000000 0.000000 -57.614300 22.821600 120.461998 141.406998 -0.100356 0.101169 0.051114 -0.045134 -153.259995 -2.000000 2.000000 0.000000 84.110901 -9.515850 169.382004 -33.828499 0.328420 0.076114 -0.054506 0.003888 -134.822006 -40.412071 -9.713444 -10.781333 88.832901 -1.580018 4.802013 -14.893169 -11.259540 -4.388055 -13.724877 8.987966 -2.441366 23.031651 -2.103956 -2.105469 -7.108220 -0.840590 -0.444064 
-3.059195 46.468109 3.538787 1.895990 -2.244870 17.982000 -16.038300 1.273770 4.121900 14.015900 -5.200490 2.459980 4.993720 -1.191520 -4.883170 6.861140 3.954020 -2.234110 2.000000 -2.000000 0.000000 -58.355900 23.758499 119.932999 141.259995 -0.100590 0.101462 0.050999 -0.044740 -153.113007 -2.000000 2.000000 0.000000 83.926300 -9.628860 171.753006 -35.849998 0.325665 0.080073 -0.054411 -0.001996 -136.209000 -40.840969 -9.888275 -9.155865 78.395065 -0.647142 4.684070 -17.075096 -9.023984 -4.154355 -13.859955 8.424825 -2.139060 23.996983 -2.169769 -2.117756 -6.461966 -0.355799 -0.222432 
